<svg width="141" height="143" viewBox="0 0 141 143" fill="none" xmlns="http://www.w3.org/2000/svg">
<path d="M103.458 18.0383C90.909 6.0238 72.6116 -3.0659 45.553 0.972705C-1.85303 8.0487 -2.86085 41.4052 1.84619 49.1547C4.46167 53.4607 14.9054 56.1732 24.2333 57.6547C27.5321 58.1786 29.1829 58.443 29.8158 58.5658C34.8231 59.538 37.0942 60.3866 41.5093 62.9458C42.0556 63.2625 42.8262 63.7451 44.345 64.6964L44.4878 64.7858C45.0573 65.1425 45.3506 65.3263 45.646 65.5036C47.6187 66.688 49.695 67.69 51.8499 68.4948C52.1619 68.6113 52.4779 68.7225 53.0714 68.9315L53.6299 69.1283C57.7994 70.5964 59.8917 71.3331 61.9834 71.8474C69.4856 73.6918 77.3392 73.5411 84.7658 71.4119C86.8281 70.8207 88.882 70.0082 92.959 68.3953L129.082 54.1056C135.899 51.4091 139.308 50.0604 140.208 48.0809C140.86 46.6474 140.854 45 140.191 43.5719C139.276 41.6003 135.856 40.2797 129.021 37.6407L117.092 33.032C116.438 32.7795 115.697 32.8658 115.109 33.2477C89.5122 49.8669 65.41 51.9874 53.7777 52.5222C51.9229 52.6074 50.3499 51.1677 50.2646 49.309C50.1799 47.4505 51.6145 45.8748 53.4691 45.7894C64.1302 45.2993 85.4815 43.433 108.535 29.4236C109.472 28.8544 109.819 27.6618 109.47 26.6227C109.175 25.7471 108.955 25.0206 108.366 24.2129C106.826 22.1009 105.201 20.0308 103.458 18.0383Z" fill="black"/>
<path d="M9.06957 60.1707C9.261 60.0986 9.52783 60.1605 10.0609 60.287L22.0609 63.1344C25.5578 63.9639 27.3063 64.3792 28.7003 64.8298C30.3053 65.3485 30.8047 65.5392 32.3445 66.2249C33.682 66.8206 36.0492 68.1105 40.7827 70.6895C50.5346 76.0027 64.0306 80.7036 73.5923 80.7037C85.5306 80.7037 100.996 73.6193 108.84 69.8235C109.469 69.5192 109.785 69.3658 110.007 69.4113C110.202 69.4515 110.363 69.5728 110.457 69.7474C110.563 69.9456 110.506 70.2851 110.389 70.9629L108.53 85.6216C108.274 87.6403 107.095 89.4405 105.285 90.3699C89.6434 98.4003 72.743 99.4683 57.0589 97.1407C40.1755 94.6348 24.9763 88.2208 14.9249 82.6886C13.2653 81.7752 12.1395 80.1439 11.8026 78.2796L8.77364 61.5131C8.66838 60.9789 8.61429 60.7103 8.69543 60.5238C8.76635 60.3608 8.90224 60.234 9.06957 60.1707Z" fill="black"/>
<path d="M15.2226 94.2539C14.8734 92.4827 16.7233 91.0747 18.3577 91.8411C28.4904 96.593 41.4739 101.227 55.6404 103.33C70.4471 105.528 86.7202 104.976 102.357 98.7616C103.976 98.1181 105.737 99.4776 105.441 101.195L103.921 110.025C101.942 121.528 100.953 127.28 98.0408 131.595C95.4733 135.399 91.874 138.409 87.6579 140.277C82.8751 142.396 76.9845 142.395 65.2053 142.395H57.0587C45.5404 142.395 39.7805 142.395 35.0669 140.347C30.9107 138.54 27.3417 135.626 24.7558 131.931C21.8234 127.74 20.7187 122.14 18.5117 110.94L15.2226 94.2539Z" fill="black"/>
</svg>
